<?xml version="1.0" standalone="no"?>
<!DOCTYPE svg PUBLIC "-//W3C//DTD SVG 1.1//EN" "http://www.w3.org/Graphics/SVG/1.1/DTD/svg11.dtd">
<svg xmlns="http://www.w3.org/2000/svg">
<metadata>Copyright (C) 2015 by original authors @ fontello.com</metadata>
<defs>
<font id="fontello" horiz-adv-x="1000" >
<font-face font-family="fontello" font-weight="400" font-stretch="normal" units-per-em="1000" ascent="850" descent="-150" />
<missing-glyph horiz-adv-x="1000" />
<glyph glyph-name="twitter" unicode="&#xe800;" d="m904 622q-37-54-90-93 0-8 0-23 0-73-21-145t-64-139-103-117-144-82-181-30q-151 0-276 81 19-3 43-3 126 0 224 77-59 2-105 36t-64 89q19-2 34-2 24 0 48 6-63 13-104 62t-41 115v2q38-21 82-23-37 25-59 64t-22 86q0 49 25 91 68-83 164-133t208-55q-5 21-5 41 0 75 53 127t127 53q79 0 132-57 61 12 114 44-20-64-79-100 52 6 104 28z" horiz-adv-x="928.6" />
<glyph glyph-name="linkedin" unicode="&#xe801;" d="m195 501v-553h-184v553h184z m12 171q0-41-29-68t-75-27h-1q-46 0-74 27t-28 68q0 41 29 68t75 27 74-27 29-68z m650-407v-317h-183v296q0 59-23 92t-71 33q-35 0-58-19t-36-48q-6-17-6-45v-309h-184q1 223 1 361t0 165l-1 27h184v-80h-1q11 18 23 31t31 29 49 24 64 9q95 0 153-63t58-186z" horiz-adv-x="857.1" />
<glyph glyph-name="facebook" unicode="&#xe802;" d="m535 843v-147h-87q-48 0-65-20t-17-60v-106h164l-22-165h-142v-424h-171v424h-142v165h142v122q0 104 58 161t155 57q82 0 127-7z" horiz-adv-x="571.4" />
<glyph glyph-name="long-arrow-right" unicode="&#xe803;" d="m964 352q0-8-5-14l-215-197q-9-8-19-4-11 5-11 17v125h-696q-8 0-13 5t-5 12v108q0 7 5 12t13 5h696v125q0 12 11 17t19-3l215-196q5-5 5-12z" horiz-adv-x="1000" />
<glyph glyph-name="long-arrow-left" unicode="&#xe804;" d="m1000 404v-108q0-7-5-12t-13-5h-696v-125q0-12-11-17t-19 3l-215 196q-5 5-5 12 0 8 5 14l215 197q9 8 19 4 11-5 11-17v-125h696q8 0 13-5t5-12z" horiz-adv-x="1000" />
<glyph glyph-name="arrow-left" unicode="&#xe805;" d="m481 850l11-10-472-490 472-490-11-10-476 495-5 5 481 500z" horiz-adv-x="491" />
<glyph glyph-name="arrow-right" unicode="&#xe806;" d="m10 850l-10-10 472-490-472-490 10-10 477 495 5 5-482 500z" horiz-adv-x="491" />
<glyph glyph-name="i-logo" unicode="&#xe807;" d="m0 532l0-682 111 0 0 682-111 0z" horiz-adv-x="112" />
<glyph glyph-name="n-logo" unicode="&#xe808;" d="m0 532l0-682 111 0 0 496 336-496 119 0 0 682-111 0 0-488-335 488-120 0z" horiz-adv-x="566" />
<glyph glyph-name="o-logo" unicode="&#xe809;" d="m0 850l0-99 674 0 0 99-674 0z m368-265c-198 0-364-165-364-368 0-202 162-367 364-367 198 0 363 165 363 367 0 203-165 368-363 368z m0-120c132 0 244-111 244-248 0-136-108-248-244-248-136 0-244 112-244 248 0 137 108 248 244 248z" horiz-adv-x="731" />
<glyph glyph-name="s-logo" unicode="&#xe80a;" d="m253 560c-26-1-54-4-80-12-25-8-49-20-70-32-20-17-41-38-54-62-12-25-21-55-21-92 0-33 5-58 17-83 13-20 25-40 45-57 17-16 38-25 59-37 20-8 41-17 62-21 20-8 37-12 58-20 16-4 29-13 41-21 12-8 20-17 25-30 8-12 9-24 9-41 0-17-5-29-9-41-9-13-17-21-25-29-12-8-25-16-37-20-46-13-82-4-115 12-21 13-38 29-51 50l-11 24-96-70 13-20c12-17 25-33 41-46 17-12 33-25 53-33 17-8 38-17 58-21 21-4 42-8 62-8 25 0 54 4 79 12 29 8 53 21 74 38 20 16 42 37 54 62 12 24 21 57 21 90 0 33-9 67-21 88-12 29-28 45-49 62-21 12-42 24-67 36-21 8-45 18-66 26-17 4-33 11-49 15-13 4-25 13-38 21l-24 26c-4 8-9 19-9 36 0 16 5 29 9 41 8 13 12 22 24 30 13 8 21 13 38 17 41 12 78 3 103-9 17-9 33-21 45-38l17-20 87 71-13 20c-17 25-41 46-74 62-31 16-72 24-115 24z" horiz-adv-x="455" />
<glyph glyph-name="up" unicode="&#xe80b;" d="m600 189q0-7-6-13l-28-27q-5-6-12-6t-13 6l-220 219-219-219q-5-6-13-6t-13 6l-27 27q-6 6-6 13t6 13l260 260q5 6 12 6t13-6l260-260q6-5 6-13z" horiz-adv-x="642.9" />
<glyph glyph-name="up-bold" unicode="&#xe80c;" d="m939 107l-92-92q-11-10-26-10t-25 10l-296 297-296-297q-11-10-25-10t-26 10l-92 92q-11 11-11 26t11 25l414 414q11 10 25 10t25-10l414-414q11-11 11-25t-11-26z" horiz-adv-x="1000" />
<glyph glyph-name="diamond-icon" unicode="&#xe80d;" d="m873 444l-419 229-412-229 0 0h-5v-317h5l0 0 428-241 402 241h1l0 317-2 0 2 0z m-419 191l350-192-99-59-251 138-242-135-101 57 343 191z m0-280l-95-52-113 64 208 116 218-119-112-67-106 58z m74-78l-59-36-75 43 60 33 74-40z m-203 7l-101-56-113 64 101 56 113-64z m34-19l111-62 92 56 98-53-191-116-210 119 100 56z m236 13l111 67 98-53-111-67-98 53z m-524 149l105-60-105-58v118z m0-152l117-66-117-66v132z m398-351l-358 202 113 63 246-138 225 135 109-61-335-201z m370 222l-111 61 111 66v-127z m0 165l-99 54 99 60v-114z m39 523v-34h-840v34h840z" horiz-adv-x="916" />
<glyph glyph-name="dna" unicode="&#xe80e;" d="m919 781h-841v34h841v-34z m-39-122h-39c0-41-9-77-25-110h-632c-16 33-25 69-25 110h-39c0-190 167-289 338-380-171-91-338-190-338-380h39c0 45 11 84 30 120h622c19-36 30-75 30-120h39c0 190-166 289-338 380 171 91 338 190 338 380z m-92-604h-575c62 82 172 141 287 202 115-61 225-120 288-202z m-288 246c-119 63-233 124-294 211h588c-61-87-174-148-294-211z" horiz-adv-x="1000" />
<glyph glyph-name="cycle" unicode="&#xe80f;" d="m910 815v-33h-810v33h810z m-96-778l-28-29 35-34h-88c-18-13-38-24-58-34v-1h146l-34-34 29-27 78 80 0 0 0 0-80 79z m-610 75l-25 6c27-42 61-79 102-108h67c-57 28-105 72-138 125l-6-23z m669 203c0 85-29 167-80 232h50v40h-112v0h0l0-112h39v44c44-58 68-130 68-204 0-184-146-334-329-340v-1h-168-241v-35h409v1c202 6 364 172 364 375z m-688-175l0 0 35 106-38 12-11-34c-8 29-12 59-12 91 0 188 152 340 340 340 75 0 148-25 208-71l-3 25 24 3c-66 50-146 78-230 78-207 0-375-168-375-375 0-42 7-82 20-120l-52 17-12-38 106-34 0 0z" horiz-adv-x="1000" />
<glyph glyph-name="global" unicode="&#xe810;" d="m859 701h-718v57h718v-57z m-30-336v-163h-70c-27-91-99-163-190-191v-70h-162v73c-90 27-161 98-189 188h-72v163h71c27 91 99 163 190 190v70h162v-73c90-27 161-98 189-187h71z m-120-42v-79h78v79h-78z m-260-261v-79h78v79h-78z m78 442v79h-78v-79h78z m42-400v-44c66 24 118 76 141 142h-43v163h42c-24 64-75 115-139 139v-41h-163v44c-66-25-118-77-141-142h43v-163h-42c24-64 75-115 139-139v41h163z m-380 219v-79h78v79h-78z" horiz-adv-x="1000" />
<glyph glyph-name="innovation" unicode="&#xe811;" d="m859 691h-718v58h718v-58z m-4-415v-141l1 0-1 0v0h-1l-350-197-351 197 5 3h-5v139l0 0 0 0v141l0 0 351 197 352-197-1 0h0v-142l0 0 0 0z m-49 114l-77-43 77-43v86z m-253-85l75 43-124 69-124-69 76-43 48 27 49-27z m-223 14l-76-42 76-43 75 43-75 42z m50-113l124-70 124 70-75 42-48-27-48 27-77-42z m299 28l75 43-75 42-76-42 76-43z m-425 184l76-42 174 98 175-98 75 42-250 141-250-141z m-51-113l76 43-76 43v-86z m0-142l76 43-76 43v-86z m552-28l-76 43-174-98-175 98-76-43 250-141 251 141z m51 114l-77-43 77-43v86z" horiz-adv-x="1000" />
<glyph glyph-name="success" unicode="&#xe812;" d="m860 699h-718v57h718v-57z m8-755h-736l368 674 368-674z m-252 337h-231l-61-110h352l-60 110z m-116 212l-83-152h166l-83 152z m-267-489h534l-58 107h-417l-59-107z" horiz-adv-x="1000" />
<glyph glyph-name="circles-icon" unicode="&#xe813;" d="m877 799h-840v35h840v-35z m10-419v-184h-86c-32-118-124-211-242-243v-85h-183v85 4c-116 32-208 124-241 239h-87v184h86c32 117 124 210 242 242v85h183v-89c116-32 208-124 241-238h87z m-479 175h120v32 39 49h-120v-49-39-32z m-242-327h34v120h-34-38-49v-120h48 39z m361-208h-119v-36-38-46h120v46 38 36z m234 176h-58v184h57c-30 94-106 170-201 200v-57h-183v57 3c-97-30-173-107-202-203h58v-184h-58c31-95 106-170 201-200v56h184v-60c97 30 172 107 202 204z m94 152h-47-39-34v-120h34 39 47v120z" horiz-adv-x="916" />
<glyph glyph-name="squares-icon" unicode="&#xe814;" d="m581 678l-131-130-120 120-271-270 121-121-111-111 270-271 111 112 123-123 271 270-123 123 130 131-270 270z m-467-280l216 215 93-93-84-84 0 0-132-132-93 94z m223-18l95-94-102-104-95 95 102 103z m123-122l94-94-104-102-93 92 103 104z m29 29l84 84 94-94-84-84-94 94z m-27 27l-95 95 84 84 95-95-84-84z m-123-364l-215 216 84 84 94-95 0 0 121-120-84-85z m449 204l-215-215-95 95 133 132 0 0 84 84 93-96z m-215 271l0 0-95 95 104 103 215-215-103-104-121 121z m306 407v-34h-840v34h840z" horiz-adv-x="916" />
<glyph glyph-name="triangle-icon" unicode="&#xe815;" d="m876 780h-840v34h840v-34z m11-877h-848l424 734 424-734z m-286 422h-276l-105-179h484l-103 179z m-138 240l-118-203h235l-117 203z m-362-625h723l-98 169h-526l-99-169z" horiz-adv-x="916" />
<glyph glyph-name="zig-zag-icon" unicode="&#xe816;" d="m878 771h-840v34h840v-34z m-503-154l162-186 163 186 150-172 25 21-175 201-163-186-162 186-162-186-151 172-25-21 176-201 162 186z m0-155l162-187 163 187 150-172 25 21-175 201-163-188-162 188-162-188-151 173-25-21 176-201 162 187z m0-156l162-186 163 186 150-173 25 21-175 202-163-187-162 187-162-187-151 173-25-21 176-201 162 186z m0-155l162-187 163 187 150-174 25 22-175 202-163-188-162 188-162-188-151 173-25-21 176-201 162 187z" horiz-adv-x="916" />
<glyph glyph-name="security" unicode="&#xe817;" d="m834 742v-58h-717v58h717z m-18-476c-2-188-156-339-343-338s-339 156-337 344c1 187 155 338 343 337s338-156 337-343z m-56 0c2 157-125 286-282 287-157 2-285-125-287-282-1-157 125-286 282-287 157-2 286 125 287 282z m-304 108h34c5 0 10 5 10 10v94c0 6-5 10-10 10h-34c-5 0-10-4-10-10v-94c0-5 5-10 10-10z m-111 62c-4 4-10 4-14 0l-24-23c-4-4-4-10 0-14l67-67c4-4 10-4 14 0l24 24c4 3 4 10 0 14l-67 66z m25-182v33c0 6-5 10-10 10h-94c-6 0-10-4-10-10v-33c0-6 4-10 10-10h94c5 0 10 4 10 10z m18-45c-3 4-10 4-14 0l-66-67c-4-3-4-10 0-14l23-23c4-4 10-4 14 0l67 66c4 4 4 10 0 14l-24 24z m102-42h-33c-6 0-10-5-10-10v-94c0-6 4-10 10-10h33c6 0 10 4 10 10v94c0 5-4 10-10 10z m82 42c-3 4-10 4-14 0l-23-24c-4-3-4-10 0-14l66-66c4-4 10-4 14 0l24 23c4 4 4 10 0 14l-67 67z m5 79v-34c0-5 5-10 10-10h94c6 0 10 5 10 10v34c0 5-4 10-10 10h-94c-5 0-10-5-10-10z m-19 44c4-4 10-4 14 0l67 67c4 3 4 10 0 14l-24 23c-3 4-10 4-14 0l-66-66c-4-4-4-10 0-14l23-24z" horiz-adv-x="1000" />
</font>
</defs>
</svg>
