<?xml version="1.0" encoding="utf-8"?>
<!-- Generator: Adobe Illustrator 18.1.1, SVG Export Plug-In . SVG Version: 6.00 Build 0)  -->
<!DOCTYPE svg PUBLIC "-//W3C//DTD SVG 1.1//EN" "http://www.w3.org/Graphics/SVG/1.1/DTD/svg11.dtd">
<svg version="1.1" id="Layer_1" xmlns="http://www.w3.org/2000/svg" xmlns:xlink="http://www.w3.org/1999/xlink" x="0px" y="0px"
	 viewBox="0 0 270 270" enable-background="new 0 0 270 270" xml:space="preserve">
<path fill="#010101" d="M137.3,119.8h2.6V77.5h-2.6V67.1h12.2c3.9,13.5,6.1,24.5,8.5,37.7h0.5c-0.2-7.5-0.4-10.2-0.4-16V77.5h-2.5
	V67.1h11.1v10.4h-2.3v53.2h-7.8c-3.5-13.9-6.9-25.5-10.3-43.7h-0.5c0.3,5.7,0.5,18.5,0.5,21.4v11.3h2.3v10.4h-11.3V119.8z
	 M167,119.8l3,0l6.3-42.3h-2.7V67.1h19.4v10.4h-2.8l6.7,42.2l2.8,0v10.4h-14.4v-10.4l2.7,0l-0.8-7.1h-7.6l-0.5,7.1l2.6,0v10.4H167
	V119.8z M186.4,104.4l-2.5-24.6h-1.1l-2.4,24.6H186.4z M105.9,119.8h2.6V77.5h-2.6V67.1h12.2c3.9,13.5,6.1,24.5,8.5,37.7h0.5
	c-0.2-7.5-0.4-10.2-0.4-16V77.5h-2.5V67.1h11.1v10.4H133v53.2h-7.8c-3.5-13.9-6.9-25.5-10.3-43.7h-0.5c0.3,5.7,0.5,18.5,0.5,21.4
	v11.3h2.3v10.4h-11.3V119.8z M70.6,119.8l3,0l6.3-42.3h-2.7V67.1h19.4v10.4h-2.8l6.7,42.2l2.8,0v10.4H88.7v-10.4l2.7,0l-0.8-7.1H83
	l-0.5,7.1l2.6,0v10.4H70.6V119.8z M89.9,104.4l-2.5-24.6h-1.1l-2.4,24.6H89.9z M97.3,187.2h7.3c-0.2,7.8,1.1,11.5,3.7,11.5
	c2.1,0,3.2-2.5,3.2-6.3c0-11.1-13.6-16-13.6-33.2c0-8.8,3.6-15.1,8.7-15.1c3.3,0,4.7,1.8,6.6,4.5v-4h7.3v19h-7.3
	c0.1-7.5-1.3-10.2-3.6-10.2c-1.7,0-2.8,1.8-2.8,4.7c0,2.6,0.7,4.9,2.1,6.9c1.5,2.2,3.4,4.2,5.8,7.8c4.2,6.3,5.8,11.6,5.8,18.3
	c0,9.8-4,17-9.5,17c-2.6,0-4.4-1.3-6.5-4.5v4h-7.3V187.2z M154.4,197.3h2.6V155h-1.8v-10.4h12.6V155h-2v42.2h2.8v10.4h-14.3V197.3z
	 M149.1,144.8h-10H139v10.4h0.1h1.6v36.8c0,5.1-1.1,7.2-3,7.4c-1.9-0.1-3-2.2-3-7.4v-36.8h1.6h0.1v-10.4h-0.1h-10h-3.5v10.4h2.2
	v36.3c0,13.3,4.6,17.3,12.7,17.3c7.9,0,12.7-4,12.7-17.3v-36.3h2.2v-10.4H149.1z"/>
</svg>
