<?xml version="1.0" encoding="UTF-8" standalone="no"?>
<!-- Generator: Adobe Illustrator 18.1.0, SVG Export Plug-In . SVG Version: 6.00 Build 0)  -->

<svg
   xmlns:dc="http://purl.org/dc/elements/1.1/"
   xmlns:cc="http://creativecommons.org/ns#"
   xmlns:rdf="http://www.w3.org/1999/02/22-rdf-syntax-ns#"
   xmlns:svg="http://www.w3.org/2000/svg"
   xmlns="http://www.w3.org/2000/svg"
   xmlns:sodipodi="http://sodipodi.sourceforge.net/DTD/sodipodi-0.dtd"
   xmlns:inkscape="http://www.inkscape.org/namespaces/inkscape"
   version="1.1"
   id="Layer_1"
   x="0px"
   y="0px"
   viewBox="0 0 160.2 12.1"
   enable-background="new 0 0 160.2 12.1"
   xml:space="preserve"
   inkscape:version="0.91 r13725"
   sodipodi:docname="bcbg-logo-white.svg"><metadata
     id="metadata4177"><rdf:RDF><cc:Work
         rdf:about=""><dc:format>image/svg+xml</dc:format><dc:type
           rdf:resource="http://purl.org/dc/dcmitype/StillImage" /><dc:title></dc:title></cc:Work></rdf:RDF></metadata><defs
     id="defs4175" /><sodipodi:namedview
     pagecolor="#ffffff"
     bordercolor="#666666"
     borderopacity="1"
     objecttolerance="10"
     gridtolerance="10"
     guidetolerance="10"
     inkscape:pageopacity="0"
     inkscape:pageshadow="2"
     inkscape:window-width="1920"
     inkscape:window-height="1018"
     id="namedview4173"
     showgrid="false"
     inkscape:zoom="9.1760301"
     inkscape:cx="80.099998"
     inkscape:cy="6.0500002"
     inkscape:window-x="-8"
     inkscape:window-y="-8"
     inkscape:window-maximized="1"
     inkscape:current-layer="Layer_1" /><path
     fill-rule="evenodd"
     clip-rule="evenodd"
     fill="#1B1B1C"
     d="M93.9,4.8L97,0.2h1.7l-4.1,5.8l4.1,5.8H97l-3.1-4.6l-3.4,4.6h-1.7  l4.1-5.8l-4.1-5.8h1.7L93.9,4.8L93.9,4.8z M106,0.2l-4.8,11.6h1.5l1.2-3.1h5.8l1.5,3.1h1.5l-4.8-11.6H106L106,0.2z M128.8,0.2v11.6  h1.5V7.5h4.4l2.4,4.4h1.5L136,7.3c1.5-0.7,2.2-1.7,2.2-3.4c0-1-0.2-1.7-1-2.4c-0.7-0.7-1.5-1.2-2.4-1.2H128.8L128.8,0.2z M134.8,1.7  c1.5,0,2.2,0.7,2.2,2.2c0,1.5-0.7,2.2-2.2,2.2h-4.6V1.7H134.8L134.8,1.7z M115.7,0.2h9l-6.8,10.2h7v1.5H115l7-10.2h-6.3V0.2  L115.7,0.2z M145,0.2v11.6h-1.5V0.2H145L145,0.2z M153.7,0.2l-4.8,11.6h1.5l1.5-3.1h5.8l1.2,3.1h1.5l-5.1-11.6H153.7L153.7,0.2z   M152.2,7.3l2.2-5.3l2.4,5.3H152.2L152.2,7.3z M104.5,7.3l2.2-5.3l2.4,5.3H104.5L104.5,7.3z M86.6,11.9L81.5,0.2h-1.7L75,11.9h1.5  l1.5-3.1h5.8l1.5,3.1H86.6L86.6,11.9z M83,7.3h-4.6l2.4-5.3L83,7.3L83,7.3z M71.6,0.2v11.6h-1.5V3.1l-4.8,8.7l-4.6-8.7v8.7H59V0.2  h1.7L65.3,9l4.6-8.7H71.6L71.6,0.2z M14.7,6.1c0-2.9,2.4-4.6,5.1-4.6c1.7,0,3.1,0.7,4.4,1.9l1.2-0.7C24.1,1,22.2,0,19.8,0  c-3.4,0-6.5,2.4-6.5,6.1c0,3.6,3.1,6.1,6.5,6.1c2.4,0,4.4-1,5.6-2.7l-1.2-0.7c-1.2,1.2-2.7,1.9-4.4,1.9C17.1,10.7,14.7,8.9,14.7,6.1  L14.7,6.1z M35.3,1.7c1.5,0,2.2,0.5,2.2,1.7c0,1.2-0.7,1.7-2.2,1.7h-4.8V1.7H35.3L35.3,1.7z M28.7,0.2h7c2.2,0,3.4,1,3.4,3.1  c0,1.2-0.5,1.9-1.7,2.4c1.2,0.7,1.9,1.7,1.9,2.9c0,2-1.8,3.1-3.6,3.1h-7V0.2L28.7,0.2z M35.3,6.8c1.7,0,2.4,0.7,2.4,1.9  c0,1.2-0.7,1.7-2.4,1.7h-4.8V6.8H35.3L35.3,6.8z M6.5,1.7c1.5,0,2.2,0.5,2.2,1.7c0,1.2-0.7,1.7-2.2,1.7H1.7V1.7H6.5L6.5,1.7z M0,0.2  h7c2.2,0,3.4,1,3.4,3.1c0,1.2-0.5,1.9-1.7,2.4c1.2,0.7,1.9,1.7,1.9,2.9c0,2-1.8,3.1-3.6,3.1H0V0.2L0,0.2z M6.5,6.8  C8.2,6.8,9,7.5,9,8.7c0,1.2-0.7,1.7-2.4,1.7H1.7V6.8H6.5L6.5,6.8z M44,6.1c0-2.7,2.5-4.6,5.1-4.6c1.7,0,3.1,0.7,4.4,1.9l1.2-0.7  C53.4,1,51.5,0,49.1,0c-3.1,0-6.8,2.8-6.8,6.1c0,3.6,3.4,6.1,6.8,6.1c2.4,0,4.4-1,5.8-2.9V5.1h-6.5v1.7h5.1v1.7  c-1.2,1.5-2.7,2.2-4.4,2.2C46.4,10.7,44,8.9,44,6.1L44,6.1z"
     id="path4171"
     style="fill:#ffffff;fill-opacity:1" /></svg>