<?xml version="1.0" encoding="utf-8"?>
<!-- Generator: Adobe Illustrator 18.1.1, SVG Export Plug-In . SVG Version: 6.00 Build 0)  -->
<!DOCTYPE svg PUBLIC "-//W3C//DTD SVG 1.1//EN" "http://www.w3.org/Graphics/SVG/1.1/DTD/svg11.dtd">
<svg version="1.1" id="Layer_1" xmlns="http://www.w3.org/2000/svg" xmlns:xlink="http://www.w3.org/1999/xlink" x="0px" y="0px"
	 viewBox="0 0 270 270" enable-background="new 0 0 270 270" xml:space="preserve">
<g>
	<path fill="#231F20" d="M47.3,153.3l0-2.6l16.4,0c5,0,8.8-1.1,11.7-3.3c2.2-1.7,3.7-3.9,4.6-6.7c0.6-2,0.9-4.1,0.9-6.3l0-6
		c0-0.2,0-0.3,0-0.4l0,0l0-1.3l-0.1-11.3l2.6,0l0.1,12.5c0,0.4,0,1.1,0,3.1c0,0.1,0,0.1,0,0.2c0,0.8,0,1.7,0,2.3c0,0.4,0,0.7,0,1
		c0,0,0,0,0,0l0,0l0,0c0,2.5-0.3,4.9-1,7.1c-1.1,3.3-2.9,6-5.6,8c-3.4,2.6-7.7,3.8-13.3,3.8L47.3,153.3z"/>
	<path fill="#231F20" d="M115.3,153.3l-13.2,0h0c-5.2,0-9.2-2-12.2-6c-2.6-3.5-4-7.8-4-12.9c0-5.1,1.4-9.6,4-13.2
		c3-4.2,7.1-6.3,12.1-6.3l13.2,0c5,0,9.1,2.1,12.2,6.3c2.6,3.6,4,8,4,13.2c0,5-1.3,9.3-3.9,12.8
		C124.6,151.3,120.5,153.3,115.3,153.3z M102.1,150.6l13.2,0l0,1.3v-1.3c4.3,0,7.7-1.7,10.1-4.9c2.3-3.1,3.4-6.8,3.4-11.3
		c0-4.7-1.1-8.5-3.5-11.7c-2.6-3.5-5.9-5.2-10.1-5.2l-13.2,0c-4.2,0-7.5,1.7-10,5.2c-2.3,3.2-3.5,7.1-3.5,11.7
		c0,4.5,1.1,8.2,3.4,11.3C94.5,149,97.8,150.6,102.1,150.6L102.1,150.6z"/>
	<path fill="#231F20" d="M169.7,153.3h-23.3c-3.8,0-7-1.3-9.2-3.9c-2-2.2-3.1-5.1-3.1-8.4c0-1.2,0-3.6,0-6.1c0-3.1,0-6.3,0-7.8
		c0-3.3,1-6.1,3.1-8.4c2.2-2.5,5.4-3.8,9.2-3.8h0h23.3v2.6h-23.3h0c-3.1,0-5.5,1-7.2,3c-1.6,1.8-2.4,3.9-2.4,6.6c0,1.4,0,4.7,0,7.8
		c0,2.5,0,4.9,0,6.1c0,2.7,0.8,4.9,2.4,6.6c1.7,2,4.2,3,7.3,3h23.3V153.3z"/>
	<path fill="#231F20" d="M175.2,132.9l-3.2,0l0-2.6l3.2,0c2.3,0,4.2-0.7,5.8-2.1c1.6-1.5,2.3-3.1,2.3-5.1l0-7.6l2.6,0l0,7.6
		c0,2.7-1.1,5.1-3.2,7C180.7,131.9,178.1,132.9,175.2,132.9z"/>
	<rect x="135.3" y="133.3" fill="#231F20" width="21.7" height="2.6"/>
	<g>
		<path fill="#231F20" d="M201.9,135.4c-3.2,0-5.9-1.1-7.7-3.2c-1.7-1.9-2.6-4.2-2.6-7c0-2.7,0.9-5.1,2.6-7c1.9-2.1,4.5-3.2,7.7-3.2
			H221v2.6h-19.1c-2.5,0-4.3,0.8-5.8,2.4c-1.3,1.4-1.9,3.1-1.9,5.2c0,2.1,0.6,3.8,1.9,5.2c1.4,1.5,3.3,2.3,5.8,2.3V135.4z"/>
		<rect x="201.4" y="132.7" fill="#231F20" width="10.5" height="2.6"/>
		<path fill="#231F20" d="M192.3,153.1v-2.6h19.1c2.5,0,4.3-0.8,5.8-2.4c1.3-1.4,1.9-3.1,1.9-5.2c0-2.1-0.6-3.8-1.9-5.2
			c-1.4-1.5-3.3-2.3-5.8-2.3l0-2.6c3.2,0,5.9,1.1,7.7,3.2c1.7,1.9,2.6,4.2,2.6,7c0,2.7-0.9,5.1-2.6,7c-1.9,2.1-4.5,3.2-7.7,3.2
			H192.3z"/>
	</g>
</g>
</svg>
