<?xml version="1.0" encoding="UTF-8" standalone="no"?>
<svg
   xmlns:dc="http://purl.org/dc/elements/1.1/"
   xmlns:cc="http://creativecommons.org/ns#"
   xmlns:rdf="http://www.w3.org/1999/02/22-rdf-syntax-ns#"
   xmlns:svg="http://www.w3.org/2000/svg"
   xmlns="http://www.w3.org/2000/svg"
   xml:space="preserve"
   enable-background="new 0 0 701.5 133.4"
   viewBox="0 0 701.5 133.4"
   y="0px"
   x="0px"
   id="Layer_1"
   version="1.1"><metadata
     id="metadata3343"><rdf:RDF><cc:Work
         rdf:about=""><dc:format>image/svg+xml</dc:format><dc:type
           rdf:resource="http://purl.org/dc/dcmitype/StillImage" /><dc:title></dc:title></cc:Work></rdf:RDF></metadata><defs
     id="defs3341" /><path
     style="fill:#000000;fill-opacity:1"
     id="path3337"
     d="M12.6,124.4l20-120.2c0,0,1.8-3.2,4,0s46.8,96,46.8,96s1.2,2.2,2.5-0.5s45.8-96,45.8-96s3.8-2.8,4.5,1.2s17,113,17,113  s1.2,9,8.8,10.8l6.2,1.2c0,0,3.2,1.2,0.5,2.5h-43c0,0-1.8-0.2-1.8-1.5c0,0-0.2-1.7,1.5-1.7c1.7,0,7.2,1.3,7.3-4.3  c0.2-5.7-10.3-76.3-10.3-76.3s-0.5-2.2-1.5,0.2c-1,2.3-40.3,83.5-40.3,83.5s-1.7,1.8-3-0.2S37.4,51.2,37.4,51.2s-1.7-2-2,0.2  c-0.3,2.2-8.5,71.3-8.5,71.3s-1.7,6.2,10,7.3c0,0,4.2-0.3,4.3,1c0.2,1.3,0,2.2-2.2,2H1.4c0,0-1.5-0.3-1.3-2c0,0-0.3-1.5,1.5-1.7  c1.8-0.2,6-0.3,6-0.3S11.2,129.4,12.6,124.4z M532.2,129c0,0-4.2,0.2-6,0.3s-1.5,1.7-1.5,1.7c-0.2,1.7,1.3,2,1.3,2h37.7  c2.2,0.2,2.3-0.7,2.2-2c-0.2-1.3-4.3-1-4.3-1c-11.7-1.2-10-7.3-10-7.3s8.2-69.2,8.5-71.3c0.3-2.2,2-0.2,2-0.2s38.8,78.8,40.2,80.8  s3,0.2,3,0.2s39.3-81.2,40.3-83.5c1-2.3,1.5-0.2,1.5-0.2s10.5,70.7,10.3,76.3c-0.2,5.7-5.7,4.3-7.3,4.3c-1.7,0-1.5,1.7-1.5,1.7  c0,1.3,1.8,1.5,1.8,1.5h43c2.8-1.2-0.5-2.5-0.5-2.5l-6.2-1.2c-7.5-1.8-8.8-10.8-8.8-10.8s-16.2-109-17-113s-4.5-1.2-4.5-1.2  s-44.5,93.2-45.8,96s-2.5,0.5-2.5,0.5s-44.5-92.8-46.8-96s-4,0-4,0l-20,120.2C535.9,129.4,532.2,129,532.2,129z M194.6,120.4  c0,0-2,6.8-9.8,8.8l-4.8,0.5c0,0-1.5-0.2-1.8,1c0,0-0.8,2,1.5,2h36.8c0,0,2.6,0.3,2.6-1.4c0,0,0.5-1.8-1.7-1.8h-5.8  c0,0-5.8,0-4.3-5.8c1.5-5.8,11.8-33.2,11.8-33.2s0.7-1.7,2.7-1.7h34.8c0,0,2.3-0.7,3,1.5l12.8,33.2c0,0,2.3,4.7-2.7,5.5  s-6.3,1.2-6.3,1.2s-1,0.2-1,1.2c0,0-0.3,1.7,1,1.7h44.2c0,0,1.7-0.3,1.8-2c0,0-0.2-1.7-2-1.5c0,0-11.2,0.8-17.7-16.5L246.2,4.4  c0,0-2.2-2.7-4.2,0.2S194.6,120.4,194.6,120.4z M240.7,38.9l14.8,40c0.7,1.8-1.3,2-1.3,2s-27.3,0.2-29.3,0s-0.8-2.5-0.8-2.5  L238.4,39C239.5,36,240.7,38.9,240.7,38.9z M311.9,8.2c0,1.7,2.5,1.5,2.5,1.5c10.8-0.3,18.3,9.2,18.3,9.2s28.8,45,32.2,49.3  s0.8,6.3,0.8,6.3s-29,41.2-34,47.5c-5,6.3-11.5,7.8-13.2,7.8c-1.7,0-2,1.7-2,1.7c0,1.2,2.3,1,2.3,1c3.2-0.5,11.8-0.7,11.8-0.7  c3.8-0.5,20.2,1.2,23,0.8c2.8-0.3,1.7-1.5,1.7-1.5c-0.2-1.3-4.2-1.3-4.2-1.3c-8.7-1.2-5-7.5-5-7.5S370,85,371.7,82.5  c1.7-2.5,2.3,0,2.3,0s22.3,35.2,26.2,41.2c3.8,6-4.5,5.3-6.2,5.5c-1.7,0.2-2.5,1-2.7,1.7c-0.2,0.7,0,1.8,1.7,1.7  c1.7-0.2,15.2-0.7,18.5-0.8c3.3-0.2,28.8,1.5,28.8,1.5c2.5,0,2.3-0.8,2.5-1.7c0.2-0.8-4.7-1.3-4.7-1.3c-10.8-1.5-15-9.2-15-9.2  s-35.5-52.2-37.3-55.2s-0.7-4.3-0.7-4.3s34.5-47,35.7-49.3s4.2-1.7,4.2-1.7s6.7-0.2,8.3-0.7s1.3-1.3,1.3-1.3  c-0.2-1.8-3.7-1.7-3.7-1.7s-13,0-15.3,0.3c-2.3,0.3-19.2-0.5-19.2-0.5c-1.5,0.2-2,1.5-2,1.5c0,1.5,1.7,1.7,1.7,1.7s2.2-0.3,6.3,0.7  c4.2,1,2.5,5.5,2.5,5.5s-23.5,35.2-25,37.5c-1.5,2.3-2.8-0.3-2.8-0.3s-23-37.5-23.8-40.2c-0.8-2.7,1.5-3,1.5-3h5.7  c2.2,0,1.5-2.2,1.5-2.2c0-1.3-1.8-1-1.8-1h-45.8C312.9,7,311.9,6.5,311.9,8.2z M456.4,10l6.8,0.3c7.5,0.3,6.7,11.7,6.7,11.7  s-0.5,96.8-1.3,102.3c-0.8,5.5-8.5,5.3-10.3,5.3c-1.8,0-3,0.2-3.2,1.5c-0.2,1.3,1,2,2.7,2c1.7,0,11.2-0.2,19.3-0.7  c8.2-0.5,28,0.8,30.3,0.8s1.8-1.8,1.8-1.8c0-1.3-3-1.3-3-1.3l-9.2-0.5c-6.5-1-6.3-13-6.3-13s-0.8-86.8,0-97.5c0.8-10.7,9-8.7,11.3-9  c2.3-0.3,3.3-0.8,2.5-2.5c-0.8-1.7-6.8-0.8-6.8-0.8c-23.8,1.7-41.2-0.5-41.2-0.5s-1.3,0-1.3,1.5C455.2,7.9,454.7,10,456.4,10z   M694.7,0c3.8,0,6.8,3.1,6.8,6.8c0,3.7-3,6.7-6.8,6.7c-3.8,0-6.8-3-6.8-6.7C687.9,3.1,690.9,0,694.7,0z M694.7,12.7  c3.2,0,5.7-2.8,5.7-5.9c0-3.2-2.5-6-5.7-6c-3.2,0-5.7,2.8-5.7,6C689,9.9,691.6,12.7,694.7,12.7z M691.5,10.1c0.8-0.1,1-0.1,1-0.6  V4.3c0-0.9-0.1-1-1-1V3h3.5c1.2,0,2.3,0.6,2.3,1.8c0,1-0.7,1.8-1.5,2l1.3,2.2c0.4,0.8,0.7,1,1.2,1v0.3h-1.2c-0.6,0-1.1-1.4-2.4-3.2  h-1v2.4c0,0.5,0.1,0.5,1,0.6v0.3h-3.2V10.1z M693.8,6.7h0.9c0.9,0,1.3-0.7,1.3-1.8c0-1.2-0.6-1.5-1.4-1.5h-0.8V6.7z" /></svg>