<?xml version="1.0" encoding="utf-8"?>
<!-- Generator: Adobe Illustrator 18.1.1, SVG Export Plug-In . SVG Version: 6.00 Build 0)  -->
<!DOCTYPE svg PUBLIC "-//W3C//DTD SVG 1.1//EN" "http://www.w3.org/Graphics/SVG/1.1/DTD/svg11.dtd">
<svg version="1.1" id="Layer_1" xmlns="http://www.w3.org/2000/svg" xmlns:xlink="http://www.w3.org/1999/xlink" x="0px" y="0px"
	 viewBox="0 0 270 270" enable-background="new 0 0 270 270" xml:space="preserve">
<g>
	<path fill="#FFFFFF" d="M21.4,129.4l0.3-4.5c0.6,0,1.2,0,1.9,0c0.7,0,1.4,0,2.1,0c0.7,0,2.1,0,2.8,0c0.7,0,1.3,0,1.8,0
		c0.3,0,0.8,0,1.5,0c0.8,0,2.3,0,3.2,0c0.9,0,1.7,0,2.6,0c0.8,0,1.5,0,1.9,0l-0.2,4.3h-0.7c0-0.1,0-0.4,0-0.7c0-0.4-0.1-0.7-0.1-1.1
		c0-0.4-0.1-0.7-0.1-1.1c0-0.3-0.1-0.5-0.1-0.6c0-0.1-0.1-0.1-0.1-0.1c-0.1,0-0.1-0.1-0.3-0.1c-0.1,0-0.3,0-0.6-0.1
		c-0.3,0-0.7,0-1.2,0h-4.5c0,0.4,0,0.7,0,0.9c0,0.3,0,0.6,0,0.9c0,0.3,0,0.7,0,1.2c0,0.5,0,1.2,0,2c0,1.5,0,7,0,8.1c0,1.1,0,2,0,2.8
		c0,0.8,0,1.4,0,1.9c0,0.5,0,1,0,1.3c0,0.4,0,0.7,0,1c0,0.3,0,0.5,0,0.8l1.8,0.1v0.7c-0.4,0-0.8,0-1.3,0c-0.5,0-1,0-1.7,0
		c-0.7,0-1.2,0-1.7,0c-0.4,0-0.9,0-1.3,0v-0.7l1.8-0.1c0-0.3,0-0.6,0-0.9c0-0.3,0-0.5,0-0.9c0-0.3,0-0.8,0-1.2c0-0.5,0-1.2,0-2
		c0-1.5,0-7,0-8.1c0-1.1,0-2,0-2.8c0-0.8,0-1.4,0-2c0-0.5,0-1,0-1.3c0-0.4,0-0.7,0-1c0-0.3,0-0.6,0-0.8h-3.5c-0.5,0-0.9,0-1.2,0
		c-0.3,0-0.5,0.1-0.7,0.1c-0.2,0-0.3,0.1-0.4,0.2c-0.1,0.1-0.2,0.1-0.2,0.2c-0.1,0.1-0.2,0.2-0.3,0.4c-0.1,0.2-0.1,0.4-0.2,0.6
		c-0.1,0.3-0.2,0.6-0.2,1c-0.1,0.4-0.2,0.9-0.3,1.5H21.4z"/>
	<path fill="#FFFFFF" d="M49.3,146.6v0.7c-0.4,0-0.8,0-1.3,0c-0.5,0-1,0-1.8,0c-0.7,0-1.3,0-1.7,0c-0.4,0-0.9,0-1.3,0v-0.7l1.9-0.1
		c0-0.3,0-0.6,0-0.9c0-0.3,0-0.5,0-0.9c0-0.3,0-0.8,0-1.3c0-0.5,0-1.2,0-2c0-1.5,0-2.7,0-3.8c0-1.1,0-2,0-2.7c0-0.8,0-5.6,0-6.1
		c0-0.5,0-1,0-1.4c0-0.4,0-0.7,0-0.9c0-0.3,0-0.5,0-0.8l-1.9-0.1v-0.7c0.4,0,0.9,0,1.3,0c0.5,0,1,0,1.8,0c0.7,0,1.3,0,1.7,0
		c0.4,0,0.9,0,1.3,0v0.7l-1.9,0.1c0,0.3,0,0.6,0,0.9c0,0.3,0,0.6,0,0.9c0,0.3,0,0.8,0,1.3c0,0.5,0,5.3,0,6.2c0,1.5,0,2.7,0,3.8
		c0,1.1,0,2,0,2.7c0,0.8,0,1.4,0,1.9c0,0.5,0,0.9,0,1.3c0,0.4,0,0.7,0,0.9c0,0.3,0,0.5,0,0.8L49.3,146.6z"/>
	<path fill="#FFFFFF" d="M76.3,147.3c-0.5,0-1,0-1.6,0c-0.6,0-1.1,0-1.6,0c-0.5,0-1,0-1.6,0c-0.5,0-1,0-1.5,0v-0.7l2-0.1
		c0-1.3,0-6.7,0-7.9c0-1.1,0-2.3,0-3.5c0-0.2,0-0.6,0-1.1c0-0.5,0-1,0-1.6c0-0.6,0-1.2,0-1.8c0-0.6,0-1.2,0-1.8c0-0.6,0-1.1,0-1.5
		c0-0.5,0-0.8,0-1h-0.1l-6.9,17h-0.4l-7.5-16.6l-0.1,0.1l0.2,19.7l2.3,0.1v0.7c-0.3,0-0.7,0-1.1,0c-0.4,0-0.9,0-1.3,0
		c-0.2,0-0.3,0-0.5,0c-0.2,0-0.3,0-0.5,0c-0.2,0-0.4,0-0.7,0c-0.3,0-0.6,0-1,0v-0.7l2.1-0.1c0-0.8,0-1.7,0-2.6c0-0.9,0-6.1,0-7.1
		c0-1,0-1.9,0-2.8c0-0.9,0-1.7,0-2.4c0-0.4,0-0.9,0-1.4c0-0.5,0-1,0-1.5c0-0.5,0-1,0-1.5c0-0.5,0-1,0-1.4l-2.1-0.1v-0.7
		c0.4,0,0.8,0,1.2,0c0.4,0,0.7,0,1.1,0c0.4,0,0.9,0,1.2,0c0.4,0,0.7,0,1,0l6.7,15.4l6.2-15.3c0.4,0,0.7,0,1,0c0.3,0,0.6,0,0.9,0
		c0.3,0,0.7,0,1.1,0c0.4,0,0.9,0,1.5,0v0.7l-2.1,0.1c0,0.3,0,0.6,0,0.8c0,0.3,0,0.6,0,1.1c0,0.4,0,1,0,1.8c0,0.7,0,1.7,0,2.9
		c0,0.3,0,0.7,0,1.2c0,0.5,0,1.1,0,1.8c0,0.7,0,1.4,0,2.1c0,0.7,0,5.7,0,6.3c0,0.7,0,1.2,0,1.7c0,0.5,0,0.9,0,1.1l2,0.1V147.3z"/>
	<path fill="#FFFFFF" d="M78.9,136.5c0-1.5,0.2-3,0.7-4.3c0.5-1.4,1.1-2.6,2-3.7c0.9-1.1,2-1.9,3.3-2.6c1.3-0.6,2.9-1,4.6-1
		c1.7,0,3.2,0.3,4.5,0.9c1.3,0.6,2.4,1.4,3.2,2.4c0.9,1,1.5,2.2,2,3.5c0.4,1.3,0.7,2.7,0.7,4.2c0,1.5-0.2,3-0.7,4.4
		c-0.5,1.4-1.2,2.7-2,3.8c-0.9,1.1-2,2-3.3,2.6c-1.3,0.7-2.8,1-4.5,1c-1.7,0-3.2-0.3-4.5-1c-1.3-0.6-2.4-1.5-3.3-2.5
		c-0.9-1.1-1.5-2.2-2-3.6C79.1,139.3,78.9,137.9,78.9,136.5z M81.4,136.5c0,1.7,0.2,3.1,0.7,4.5c0.5,1.3,1.1,2.5,1.8,3.4
		c0.8,0.9,1.6,1.7,2.6,2.2c1,0.5,2,0.8,3.1,0.8c1.2,0,2.3-0.3,3.3-0.9c1-0.6,1.8-1.5,2.4-2.5c0.7-1,1.2-2.2,1.5-3.6
		c0.4-1.4,0.5-2.8,0.5-4.2c0-1.7-0.2-3.3-0.7-4.6c-0.4-1.3-1-2.5-1.8-3.4c-0.7-0.9-1.6-1.6-2.5-2c-0.9-0.5-1.9-0.7-2.8-0.7
		c-0.8,0-1.6,0.2-2.6,0.5c-0.9,0.3-1.8,1-2.7,1.8c-0.8,0.9-1.5,2-2.1,3.4C81.6,132.5,81.4,134.3,81.4,136.5z"/>
	<path fill="#FFFFFF" d="M133.6,125.7c-0.3,0-0.5,0-0.6,0c-0.2,0-0.3,0-0.4,0.1c-0.1,0-0.1,0.1-0.2,0.1c0,0-0.1,0.1-0.1,0.1
		c-0.1,0.2-0.2,0.4-0.3,0.8c-0.2,0.4-0.3,0.8-0.5,1.3c-0.2,0.5-1.7,4.9-2,5.5c-0.2,0.6-0.4,1.1-0.6,1.6c-0.2,0.5-0.4,1-0.5,1.4
		c-0.2,0.4-0.3,0.7-0.4,0.9l-3.7,9.7h-0.4l-4.3-13h-0.1l-4.6,13h-0.4c-1-3-2.1-6-3.1-9c-1-3-3.4-9.8-4.5-12.5l-1.1-0.1V125
		c0.5,0,0.9,0,1.2,0c0.3,0,0.5,0,0.7,0c0.2,0,0.3,0,0.4,0c0.1,0,0.2,0,0.3,0c0.1,0,0.3,0,0.6,0c0.3,0,0.6,0,0.9,0c0.3,0,0.6,0,0.9,0
		c0.3,0,0.5,0,0.6,0v0.7c-0.4,0-0.7,0-1,0c-0.2,0-0.4,0-0.6,0.1c-0.1,0-0.2,0-0.3,0.1c0,0-0.1,0.1-0.1,0.1c0,0,0,0.1,0,0.2
		c0,0.1,0.1,0.2,0.1,0.3c0,0.1,0.1,0.2,0.1,0.3c0,0.1,0.1,0.2,0.1,0.2l3.1,9.2l2.6,7.6h0.1l3.6-10.5l-2.5-7.4l-1.3-0.1V125
		c0.4,0,0.8,0,1.3,0c0.5,0,1,0,1.6,0c0.6,0,1.1,0,1.6,0c0.5,0,0.9,0,1.3,0v0.7c-0.5,0-0.9,0-1.2,0.1c-0.3,0-0.5,0.1-0.6,0.1
		c-0.1,0-0.2,0.1-0.3,0.1c0,0-0.1,0.1-0.1,0.1c0,0.1,0,0.2,0.1,0.2c0,0.1,0.1,0.2,0.1,0.3l5.7,17.1h0.1l2.6-7.1
		c0-0.1,0.1-0.3,0.2-0.7c0.1-0.4,0.3-0.8,0.5-1.3c0.2-0.5,0.4-1,0.6-1.6c0.2-0.6,1.7-4.9,1.9-5.4c0.2-0.5,0.3-0.9,0.4-1.2
		c0.1-0.3,0.2-0.5,0.2-0.5s0-0.1-0.1-0.1c0,0-0.1,0-0.2-0.1c-0.1,0-0.3,0-0.6,0c-0.3,0-0.6,0-1.1,0V125c0.2,0,0.5,0,0.8,0
		c0.4,0,0.8,0,1.2,0c0.4,0,0.8,0,1.2,0c0.4,0,0.8,0,1,0V125.7z"/>
	<path fill="#FFFFFF" d="M152.3,147.2h-8c-1,0-2.5,0-3.2,0c-0.6,0-1.1,0-1.5,0c-0.4,0-0.8,0-1.1,0c-0.3,0-0.6,0-0.9,0v-0.7l1.8-0.1
		c0-0.3,0-0.7,0-1c0-0.3,0-0.7,0-1V133c0-0.8,0-3.8,0-4.3c0-0.5,0-0.9,0-1.2c0-0.3,0-0.6,0-0.9c0-0.3,0-0.6,0-0.9l-2-0.1v-0.7
		c0.4,0,0.9,0,1.5,0c0.6,0,1.5,0,2.6,0c1.6,0,3.9,0,5.4,0c1.6,0,3.2,0,4.7-0.1v4h-0.9c0-0.8-0.1-1.4-0.2-1.9c-0.1-0.5-0.2-0.8-0.5-1
		c-0.2-0.2-0.6-0.4-1-0.4c-0.4-0.1-1-0.1-1.7-0.1h-5.8v10.1c0.2,0,0.5,0,0.9,0c0.4,0,1.6,0,2,0c0.5,0,0.9-0.1,1.3-0.1
		c0.4-0.1,0.7-0.1,0.8-0.2c0.1-0.1,0.2-0.3,0.3-0.6c0.1-0.3,0.1-0.6,0.2-0.9c0-0.3,0.1-0.6,0.1-0.9c0-0.3,0-0.5,0-0.6h0.8
		c0,0.4-0.1,0.9-0.1,1.5c0,0.6-0.1,1.5-0.1,2.6c0,0.7,0,1.3,0,1.8c0,0.5,0,0.9,0.1,1.3h-0.8c-0.1-0.7-0.1-1.3-0.1-1.7
		c0-0.4-0.1-0.7-0.1-0.9c0-0.2-0.1-0.3-0.1-0.4c0-0.1-0.1-0.1-0.2-0.1c-0.2,0-0.5-0.1-0.9-0.1c-0.4,0-0.8,0-1.2,0c-0.4,0-1.6,0-2,0
		c-0.4,0-0.7,0-0.9,0c0,0.7,0,1.4,0,2.2s0,3.4,0,4.2c0,0.7,0,1.4,0,1.9c0,0.5,0,0.9,0,1.1c0.1,0.4,0.2,0.7,0.4,0.9
		c0.2,0.1,0.5,0.2,1,0.2h7.5l1.2-4.1h0.8L152.3,147.2z"/>
	<path fill="#FFFFFF" d="M181,147.2c-0.9,0-1.7,0-2.3,0c-0.6,0-1.3,0-1.9,0c-0.7,0-1.5,0-2.4,0c-0.9,0-2.1,0-3.5,0c-0.5,0-1,0-1.4,0
		c-0.4,0-0.7,0-1,0c-0.3,0-0.5,0-0.8,0c-0.2,0-0.4,0-0.6,0v-0.7l2.2-0.1c0-0.3,0-0.6,0-0.9c0-0.3,0-0.5,0-0.9c0-0.3,0-0.8,0-1.3
		c0-0.5,0-1.2,0-2c0-1.5,0-2.7,0-3.8c0-1.1,0-2,0-2.7c0-0.8,0-5.6,0-6.1c0-0.5,0-0.9,0-1.3c0-0.4,0-0.7,0-0.9c0-0.3,0-0.5,0-0.8
		l-2-0.1v-0.7c0.3,0,0.7,0,1.2,0c0.5,0,1.2,0,2,0c0.8,0,1.5,0,2,0c0.5,0,0.9,0,1.2,0v0.7l-2.1,0.1c0,0.3,0,0.6,0,0.9
		c0,0.3,0,0.6,0,0.9c0,0.3,0,0.7,0,1.2c0,0.5,0,5.4,0,6.2c0,2.3,0,4.1,0,5.4c0,1.3,0,2.4,0,3.1c0,0.7,0,1.2,0,1.5c0,0.3,0,0.4,0,0.6
		c0,0.2,0.1,0.4,0.2,0.6c0.1,0.2,0.3,0.3,0.6,0.3c0.2,0,0.5,0.1,0.9,0.1c0.5,0,0.9,0,1.4,0c0.5,0,0.9,0,1.3,0c0.4,0,0.6,0,0.7,0
		c0.5,0,1,0,1.4,0c0.4,0,0.7,0,1.1-0.1l1.4-4.2h0.8L181,147.2z"/>
	<path fill="#FFFFFF" d="M202.8,147.2c-0.3,0-0.7,0-1.1,0c-0.4,0-0.9,0-1.5,0c-0.2,0-0.4,0-0.6,0c-0.2,0-0.4,0-0.7,0
		c-0.2,0-0.5,0-0.9,0c-0.3,0-0.7,0-1.2,0v-0.7l1.2-0.1c0.3,0,0.6-0.1,0.7-0.1c0.1,0,0.1-0.1,0.1-0.2c0-0.1,0-0.2-0.1-0.3
		c-0.1-0.2-0.1-0.3-0.1-0.4l-3.3-9c-0.1-0.2-0.2-0.4-0.3-0.4c-0.1-0.1-0.3-0.1-0.5-0.1H190c-0.3,0-0.4,0.2-0.6,0.5l-3.2,8.9
		c-0.1,0.2-0.1,0.3-0.2,0.5c-0.1,0.2-0.1,0.3-0.1,0.4c0,0.1,0.2,0.2,0.5,0.2l1.3,0.1v0.7c-0.3,0-0.7,0-1.1,0c-0.4,0-0.8,0-1.2,0
		c-0.4,0-0.8,0-1.1,0c-0.3,0-0.5,0-0.8,0v-0.8c0.3,0,0.6,0,0.8-0.1c0.2,0,0.4-0.1,0.5-0.1c0.1-0.1,0.2-0.1,0.3-0.2
		c0.1-0.1,0.1-0.2,0.2-0.4c0.1-0.1,0.1-0.3,0.2-0.5c0.1-0.2,0.2-0.4,0.3-0.8c0.1-0.3,0.3-0.8,0.6-1.4c0.2-0.6,2-5.3,2.3-6.3
		l4.3-11.8h0.4l3.9,10.3c0.5,1.2,2.3,6.1,2.6,6.9c0.3,0.8,0.6,1.5,0.8,2c0.2,0.5,0.4,1,0.5,1.3c0.1,0.3,0.2,0.5,0.3,0.7
		c0,0.1,0.1,0.2,0.2,0.2c0.1,0.1,0.4,0.1,0.9,0.1V147.2z M194.7,135.4c0.2,0,0.3-0.1,0.3-0.2c0-0.1,0-0.2-0.1-0.4l-2.1-5.8
		c-0.1-0.2-0.2-0.4-0.2-0.4c-0.1,0-0.2,0.1-0.3,0.4l-2.1,5.6c0,0.1-0.1,0.2-0.1,0.3c0,0.1-0.1,0.2-0.1,0.2c0,0.1,0.2,0.1,0.5,0.1
		H194.7z"/>
	<path fill="#FFFFFF" d="M232.9,146.3c0-0.4,0-0.8,0-1.2c0-0.4,0-0.8,0-1.2c0-0.4,0-1,0-1.6c0-0.6,0-1.3,0-2.2c0-1.8,0-3.3,0-4.6
		c0-1.3,0-2.4,0-3.3c0-0.9,0-1.7,0-2.3c0-0.6,0-1.1,0-1.6c0-0.4,0-0.8,0-1.1c0-0.3,0-0.7,0-1l-2-0.1v-0.8c0.2,0,0.6,0,1.1,0
		c0.5,0,1,0,1.6,0c0.6,0,1.2,0,1.9-0.1c0.6,0,1.3,0,1.9-0.1c0.6,0,1.1,0,1.6,0c0.5,0,0.9,0,1.1,0c1.4,0,2.7,0.2,4,0.7
		c1.2,0.5,2.3,1.2,3.2,2.1c0.9,0.9,1.6,2.1,2.1,3.5c0.4,1.1,0.7,2.3,0.7,3.7c0,0.4,0,0.7,0,1.1c0,1.9-0.3,3.6-0.9,5
		c-0.6,1.4-1.4,2.6-2.4,3.5c-1,0.9-2.2,1.6-3.6,2c-1.4,0.4-2.8,0.7-4.4,0.7c-0.2,0-0.5,0-1,0c-0.5,0-0.9,0-1.4,0c-0.5,0-1,0-1.5,0
		c-0.5,0-0.8,0-0.9,0c-0.6,0-1.2,0-1.7,0c-0.5,0-1,0-1.5,0v-0.8L232.9,146.3z M235,140.9c0,0.1,0,0.4,0,0.9c0,0.5,0,1,0,1.6
		c0,0.6,0,1.1,0.1,1.6c0,0.5,0.1,0.8,0.1,0.9c0,0.1,0.2,0.2,0.5,0.3c0.3,0.1,0.6,0.1,1,0.2c0.4,0.1,0.9,0.1,1.3,0.1
		c0.5,0,0.9,0,1.4,0c1.4,0,2.6-0.3,3.7-0.8c1.1-0.5,2-1.3,2.7-2.2c0.7-0.9,1.3-2,1.6-3.2c0.4-1.2,0.6-2.6,0.6-4c0-0.4,0-0.8,0-1.2
		c-0.1-1.3-0.4-2.5-0.8-3.5c-0.6-1.3-1.3-2.4-2.3-3.3c-1-0.9-2.1-1.5-3.5-1.9c-1.3-0.4-2.7-0.6-4.3-0.6c-0.4,0-0.7,0-1.1,0.1
		c-0.4,0-0.6,0.1-0.8,0.2c-0.1,0-0.1,0.1-0.1,0.2c0,0.1,0,0.3-0.1,0.6c0,0.2,0,0.5,0,1.1c0,0.6,0,1.3,0,2.2c0,0.8,0,1.8,0,2.8
		c0,1,0,2,0,3c0,1,0,1.9,0,2.8C235,139.5,235,140.3,235,140.9z"/>
	<g>
		<path fill="#FFFFFF" d="M105.9,146.3c0,0.4-0.1,0.7-0.4,0.9c-0.3,0.3-0.6,0.4-0.9,0.4c-0.4,0-0.7-0.1-0.9-0.4
			c-0.3-0.3-0.4-0.6-0.4-0.9c0-0.4,0.1-0.7,0.4-0.9c0.3-0.3,0.6-0.4,0.9-0.4c0.4,0,0.7,0.1,0.9,0.4
			C105.8,145.7,105.9,146,105.9,146.3z"/>
	</g>
	<g>
		<path fill="#FFFFFF" d="M47.6,119.5c0,0.4-0.1,0.7-0.4,0.9c-0.3,0.3-0.6,0.4-0.9,0.4c-0.4,0-0.7-0.1-0.9-0.4
			c-0.3-0.3-0.4-0.6-0.4-0.9c0-0.4,0.1-0.7,0.4-0.9c0.3-0.3,0.6-0.4,0.9-0.4c0.4,0,0.7,0.1,0.9,0.4
			C47.4,118.9,47.6,119.2,47.6,119.5z"/>
	</g>
	<path fill="#FFFFFF" d="M161.8,146.6v0.7c-0.4,0-0.8,0-1.3,0c-0.5,0-1,0-1.8,0c-0.7,0-1.3,0-1.7,0c-0.4,0-0.9,0-1.3,0v-0.7l1.9-0.1
		c0-0.3,0-0.6,0-0.9c0-0.3,0-0.5,0-0.9c0-0.3,0-0.8,0-1.3c0-0.5,0-1.2,0-2c0-1.5,0-2.7,0-3.8c0-1.1,0-2,0-2.7c0-0.8,0-5.6,0-6.1
		c0-0.5,0-0.9,0-1.3c0-0.4,0-0.7,0-0.9c0-0.3,0-0.5,0-0.8l-1.9-0.1V125c0.4,0,0.9,0,1.3,0c0.5,0,1,0,1.8,0c0.7,0,1.3,0,1.7,0
		c0.4,0,0.9,0,1.3,0v0.7l-1.9,0.1c0,0.3,0,0.6,0,0.9c0,0.3,0,0.6,0,0.9c0,0.3,0,0.7,0,1.2c0,0.5,0,5.3,0,6.2c0,1.5,0,2.7,0,3.8
		c0,1.1,0,2,0,2.7c0,0.8,0,1.4,0,1.9c0,0.5,0,0.9,0,1.3c0,0.4,0,0.7,0,0.9c0,0.3,0,0.5,0,0.8L161.8,146.6z"/>
	<g>
		<path fill="#FFFFFF" d="M160.1,119.5c0,0.4-0.1,0.7-0.4,0.9c-0.3,0.3-0.6,0.4-0.9,0.4c-0.4,0-0.7-0.1-0.9-0.4
			c-0.3-0.3-0.4-0.6-0.4-0.9c0-0.4,0.1-0.7,0.4-0.9c0.3-0.3,0.6-0.4,0.9-0.4c0.4,0,0.7,0.1,0.9,0.4
			C159.9,118.9,160.1,119.2,160.1,119.5z"/>
	</g>
	<path fill="#FFFFFF" d="M208,127.2c0-0.1,0-0.3-0.1-0.4c-0.1-0.2-0.2-0.3-0.4-0.5c-0.2-0.2-0.4-0.3-0.7-0.4c-0.3-0.1-0.6-0.2-1-0.3
		l0-0.8c0.5,0,0.9,0,1.2,0c0.3,0,0.6,0,0.9,0c0.3,0,0.5,0,0.8,0c0.3,0,0.6,0,1.1,0c0.2,0.2,0.5,0.7,0.8,1.2c0.4,0.5,4,5.2,4.5,5.8
		c0.5,0.6,1,1.3,1.6,2.1c0.6,0.8,1.2,1.5,1.8,2.3c0.6,0.8,1.2,1.5,1.8,2.3c0.6,0.8,1.1,1.5,1.6,2.1c0.5,0.6,1,1.2,1.3,1.7
		c0.4,0.5,0.7,0.8,0.9,1.1v-5.1c0-0.5,0-1.2,0-2c0-0.8,0-1.6,0-2.4c0-0.8,0-5.8,0-6.6c0-0.7,0-1.3,0-1.8l-2.2-0.1V125
		c0.5,0,0.9,0,1,0c0.2,0,0.3,0,0.4,0c0.1,0,0.2,0,0.3,0c0.1,0,0.4,0,0.8,0c0.2,0,0.4,0,0.6,0c0.2,0,0.5,0,0.7,0c0.2,0,0.5,0,0.7,0
		c0.2,0,0.4,0,0.5,0v0.7l-2,0.1c0,0.2,0,0.6,0,1.1c0,0.5,0,5.3,0,5.9c0,0.6,0,1.3-0.1,2c0,0.7,0,1.3,0,1.9c0,0.6,0,1.1,0,1.5
		c0,0.4,0,0.7,0,0.8l-0.1,8.4h-0.4c-0.5-0.6-1-1.3-1.6-2.1c-0.6-0.8-1.2-1.5-1.7-2.3c-0.6-0.8-1.2-1.5-1.7-2.2
		c-0.6-0.7-1.1-1.4-1.5-1.9c-1.1-1.4-2-2.5-2.7-3.3c-0.7-0.8-1.2-1.5-1.6-2c-0.4-0.5-4-5.1-4.2-5.3c-0.2-0.3-0.4-0.6-0.7-0.9
		l-0.1,0.1l0,0l0,12.3c0,0.1,0,0.5,0,0.9c0,0.5,0,1.1,0,1.7c0,0.7,0,1.3,0,2c0,0.7,0,1.3,0,1.9l2.2,0.1v0.7c-0.3,0-0.7,0-1,0
		c-0.4,0-0.9,0-1.5,0c-0.7,0-1.2,0-1.5,0c-0.4,0-0.7,0-1,0v-0.7l2.1-0.1c0-1.2,0-2.5,0.1-3.7c0-1.2,0-2.5,0.1-3.7L208,127.2
		L208,127.2z"/>
</g>
</svg>
